<svg width="335" height="396" viewBox="0 0 335 396" fill="none" xmlns="http://www.w3.org/2000/svg">
<path d="M330.24 0C332.05 33.28 325.04 66.55 313.74 97.75C310.57 106.5 303.8 120.22 303.24 122L272.74 162.5C272.4 162.52 271.55 163.54 271.24 162.75C270.08 159.78 272.49 107.54 270.74 99C287.58 78.54 308.78 53.88 321.24 30.75C322.59 28.25 325.73 21.96 324.74 21.5C328.29 15.32 329.25 10.03 329.74 3L330.24 0Z" fill="url(#paint0_linear_173_438)"/>
<path d="M124.24 291C126.36 295.54 134.74 299.87 139.24 301.5C132.51 314.98 126.35 329.2 116.74 341C113.7 344.74 109.75 348.68 106.24 352C105.57 352.63 104.37 353.5 103.24 354.5C100.55 356.88 97.6 359.32 94.74 361.5C85.8 368.31 73.8 375.6 63.49 380C58.05 382.32 16.93 395.37 14.24 395.5C13.91 395.52 13.56 395.54 13.24 395.5C21.88 391.12 31.07 387.82 39.24 382.5C60.68 375.12 93.6 348.72 106.74 329.75C111.24 323.25 114.87 315.85 117.74 308.5C118.31 307.05 118.17 305.68 118.24 305.5C118.75 304.2 120.65 301 120.74 300.75C120.82 300.52 120.31 299 121.24 296C121.64 294.71 122.33 293.33 122.74 292C123.29 290.21 124.16 291.2 124.24 291Z" fill="url(#paint1_linear_173_438)"/>
<path d="M270.74 99C262.86 108.57 255.13 118.36 246.74 127.5C246.24 127.21 245.84 126.96 245.49 126.5C217.65 126.91 219.71 122.92 219.24 141C217.63 140.63 213.99 145.51 212.74 147.25C202.29 161.73 195.25 187.59 189.24 205C184.73 218.05 180.48 231.21 175.24 244L163.24 208C165.47 204.11 167.28 200.02 169.24 196C171.04 192.29 173.32 188.67 175.24 185C175.8 183.94 175.7 183.57 175.74 183.5C185.79 164.53 197.48 146.51 211.24 130C233.51 103.28 261.95 82.8 287.99 60L288.74 57C298.32 49.85 319.1 31.32 324.74 21.5C325.73 21.96 322.59 28.25 321.24 30.75C308.78 53.88 287.58 78.54 270.74 99Z" fill="url(#paint2_linear_173_438)"/>
<path d="M153.74 73.5001C153.77 73.1901 153.13 72.5201 152.99 72.5001C144.4 71.0501 107.52 86.5201 101.24 96.2501C97.91 101.41 92.55 129.91 99.74 132.5C99.68 132.61 99.38 134.41 99.24 135C98.64 134.51 97.27 138.06 97.24 138.25C96.07 146.69 99.38 195.94 96.49 196C92.86 189.58 90.14 182.35 84.99 177C80.06 176.94 81.38 173.2 76.74 175.25L77.24 122.5C79.22 112.02 83.57 102.44 87.24 92.5001C96.17 80.1201 104.28 66.8201 116.24 57.0001C118.61 55.0501 126.2 49.7801 128.74 48.5001C148.2 38.7501 169.51 43.6601 190.49 42.5001C175.04 48.7201 163.91 60.7401 153.74 73.5001Z" fill="#0E598C"/>
<path d="M211.24 130C207.84 130.44 200.7 143.19 198.99 144C196.61 145.12 195.84 142.55 195.49 142.5C193.84 142.29 191 147.72 188.99 147.5C188.02 147.39 187.45 145.03 186.74 144.5C188.14 142.18 189.25 139.31 190.74 137C225.23 83.43 252.83 83.79 288.74 57L287.99 60C261.95 82.8 233.51 103.28 211.24 130Z" fill="#0DC3C2"/>
<path d="M115.24 312.5C111.69 320.71 99.2 340.69 91.99 345C82.07 350.93 89.66 338.55 82.99 339.5C82.37 339.59 81.84 342.04 80.49 340C77.1 345.73 70.44 354.2 64.24 356C69.08 347.61 72.63 338.09 74.24 328.5C91.43 327.03 88.69 326.68 92.74 314.5C93 313.72 93.49 312.8 93.74 312L115.24 312.5Z" fill="#04A5B8"/>
<path d="M148.24 82C141.37 95.67 133.68 109.63 130.24 124.5C130.08 124.86 129.89 125.13 129.74 125.5L110.74 125.75C111.95 111.35 118.38 97.52 130.99 89.5C137.59 85.3 141.94 85.03 148.24 82Z" fill="#0394AF"/>
<path d="M153.74 73.4998C153.43 73.8898 151.55 77.9498 149.74 79.9998C141.77 74.1698 117.39 89.9998 111.74 96.2498C106.6 101.92 99.29 121.64 104.24 127.5C103.93 127.64 99.89 132.2 99.74 132.5C92.55 129.91 97.91 101.41 101.24 96.2498C107.52 86.5198 144.4 71.0498 152.99 72.4998C153.13 72.5198 153.77 73.1898 153.74 73.4998Z" fill="#04729E"/>
<path d="M149.74 79.9998C149.21 80.5898 149.3 81.7998 148.24 81.9998C141.94 85.0298 137.59 85.2998 130.99 89.4998C118.38 97.5198 111.95 111.35 110.74 125.75L129.74 125.5C129.59 125.88 129.37 126.11 129.24 126.5C123.73 128.09 107.88 125.84 104.24 127.5C99.29 121.64 106.6 101.92 111.74 96.2498C117.39 89.9998 141.77 74.1698 149.74 79.9998Z" fill="#037FA5"/>
<path d="M117.74 308.5C114.87 315.85 111.24 323.25 106.74 329.75C93.6 348.72 60.68 375.12 39.24 382.5C49.5 375.82 58.1 366.64 64.24 356C70.44 354.2 77.1 345.73 80.49 340C81.84 342.04 82.37 339.59 82.99 339.5C89.66 338.55 82.07 350.93 91.99 345C99.2 340.69 111.69 320.71 115.24 312.5C116.05 310.63 116.46 307.24 117.74 308.5Z" fill="#0DC3C2"/>
<path d="M92.74 314.5C88.69 326.68 91.43 327.03 74.24 328.5C74.3 328.15 74.6 328.04 74.74 327C75.31 322.9 75 319.83 75.24 316L92.74 314.5Z" fill="#037FA5"/>
<path d="M137.24 121C137.15 121.25 137.09 122.47 136.74 123.5C136.18 125.17 134.83 131.93 134.24 132.75C132.86 134.69 126.74 133.74 128.24 143H127.74C127.94 138.85 127.59 134.65 127.74 130.5C128.38 129.39 128.82 127.75 129.24 126.5C129.37 126.11 129.59 125.88 129.74 125.5C129.89 125.13 130.08 124.86 130.24 124.5C133.25 117.65 138.43 111.97 142.74 106C143.7 108.22 140.84 110.51 139.74 113.25C138.81 115.57 138.12 118.53 137.24 121Z" fill="#0E598C"/>
<path d="M272.74 162.5L271.24 165.25C271.15 174.33 271.36 183.42 271.24 192.5C271.17 197.83 271.32 203.17 271.24 208.5C271.09 219.25 271.22 255.56 270.24 261.25C268.88 269.18 262.58 279.54 257.74 286C254.62 290.16 249.48 295.85 245.74 299.5C228.12 316.69 206.06 328.24 183.24 337C179.88 336.05 180.94 337.39 180.49 337.5C171.7 339.68 175.92 337.33 180.24 334.5C183.69 332.25 184.7 331.74 188.24 329C193.78 324.71 198.31 320.45 203.24 315.5C207.29 311.44 210.71 308.1 214.24 303.5C220.74 295.04 225.57 286.42 228.24 276C243.83 275.83 254.41 279.4 257.24 260.5C257.26 260.34 257.22 260.16 257.24 260C259.83 240.23 256.08 173.68 257.74 146.75C257.37 142.85 256.35 141.16 254.74 138C253.44 135.45 248.84 128.71 246.74 127.5C255.13 118.36 262.86 108.57 270.74 99C272.49 107.54 270.08 159.78 271.24 162.75C271.55 163.54 272.4 162.52 272.74 162.5Z" fill="url(#paint3_linear_173_438)"/>
<path d="M300.74 160L289.24 171C289.24 171 288.69 171.12 288.74 170.5C289 166.59 287.55 156.17 288.24 150.25C293.46 141.97 298.03 133.29 303.24 125C312.23 110.71 320.04 102.67 329.74 81.75C331.61 77.71 334.41 67.8 334.24 72.75C326.53 95.08 320.51 127.55 309.24 147.75C307.07 151.64 302.16 157.04 300.74 160Z" fill="#037FA5"/>
<path d="M303.24 122C303 122.78 302.66 124.26 303.24 125C298.03 133.29 293.46 141.97 288.24 150.25C287.55 156.17 289 166.59 288.74 170.5C288.71 170.95 287.35 172.74 287.49 179.5C286.28 180.5 273.2 170.19 271.74 172.25L271.24 192.5C271.36 183.42 271.15 174.33 271.24 165.25L272.74 162.5L303.24 122Z" fill="#04A5B8"/>
<path d="M134.24 212.5C135.74 216.63 136.37 221.18 138.74 225C144.37 241.94 150.71 258.72 157.99 275C163.37 274.44 194.71 275.74 196.49 275C197.39 274.62 197.8 271.24 198.74 270.5C198.61 271.19 198 273.79 198.74 274C194.28 286.24 191.21 298.09 185.24 310C175.74 308.4 166.2 307.4 156.74 305.5C150.96 304.34 144.8 303.51 139.24 301.5C134.74 299.87 126.36 295.54 124.24 291C125.52 287.61 125.77 279.85 126.24 275.5C127.2 266.67 127.41 259.78 127.74 251C128.43 232.48 128.19 214.02 128.24 195.5C129.46 201.33 132.22 206.93 134.24 212.5Z" fill="url(#paint4_linear_173_438)"/>
<path d="M99.24 135C99.15 135.4 98.44 136.2 98.74 138.5C98.67 176.5 97.79 214.5 98.24 252.5C96.87 252.79 90.76 251.8 90.24 253.25C89.89 254.22 95.15 271.32 97.74 272L97.49 289C105.62 292.03 114.35 290.27 122.74 292C122.33 293.33 121.64 294.71 121.24 296C121.67 295.19 119.73 294.53 119.49 294.5C110.86 293.29 101.54 294.68 93.49 290.5H76.49C75.53 291.18 76.87 311.93 76.24 313.75C76.11 314.13 75.59 314 75.24 314C78.07 260.36 74.15 185.7 75.74 129.5C75.8 127.41 76.89 125.51 77.24 123.5C77.3 123.18 77.18 122.81 77.24 122.5L76.74 175.25C81.38 173.2 80.06 176.94 84.99 177C90.14 182.35 92.86 189.58 96.49 196C99.38 195.94 96.07 146.69 97.24 138.25C97.27 138.06 98.64 134.51 99.24 135Z" fill="#1C3E70"/>
<path d="M121.24 296C120.31 299 120.82 300.52 120.74 300.75C120.65 301 118.75 304.2 118.24 305.5L95.49 304.5C94.96 304.78 94.24 310.37 93.74 312C93.49 312.8 93 313.72 92.74 314.5L75.24 316C75.28 315.34 75.2 314.66 75.24 314C75.59 314 76.11 314.13 76.24 313.75C76.87 311.93 75.53 291.18 76.49 290.5H93.49C101.54 294.68 110.86 293.29 119.49 294.5C119.73 294.53 121.67 295.19 121.24 296Z" fill="#0E598C"/>
<path d="M126.24 275.5C125.77 279.85 125.52 287.61 124.24 291C124.16 291.2 123.29 290.21 122.74 292C114.35 290.27 105.62 292.03 97.49 289L97.74 272H98.24C100.42 278.69 120.21 274.18 126.24 275.5Z" fill="#2C2B5E"/>
<path d="M118.24 305.5C118.17 305.68 118.31 307.05 117.74 308.5C116.46 307.24 116.05 310.63 115.24 312.5L93.74 312C94.24 310.37 94.96 304.78 95.49 304.5L118.24 305.5Z" fill="#037FA5"/>
<path d="M156.74 305.5C150.69 318.65 144.14 325.23 133.74 334.5C133.2 330.41 123.04 340.08 116.74 341C126.35 329.2 132.51 314.98 139.24 301.5C144.8 303.51 150.96 304.34 156.74 305.5Z" fill="url(#paint5_linear_173_438)"/>
<path d="M133.74 334.5C126.21 341.21 118.45 347.33 109.74 352.5C109.34 352.52 107.15 354.09 106.24 352C109.75 348.68 113.7 344.74 116.74 341C123.04 340.08 133.2 330.41 133.74 334.5Z" fill="#EF5A49"/>
<path d="M219.24 141C219.12 145.74 219.33 150.5 219.24 155.25C219.5 155.84 220.7 157.37 220.74 157.5C222.42 162.4 226.66 168.51 229.24 173.25C229.33 176.66 229.11 180.09 229.24 183.5C228.07 184.15 228.8 188.49 228.74 188.75C228.65 189.17 227.95 188.68 227.74 189.5C227.54 190.29 227.41 191.4 227.24 192C226.64 191.87 225.98 192.25 225.74 192.75C223.72 197.03 221.55 208.27 217.49 213.5C212.4 210.86 206.28 210.41 200.99 209C199.86 208.7 199.59 207.53 199.49 207.5C197.73 207.04 197.11 208.03 196.99 208C196.89 207.97 195.59 206.52 195.49 206.5C195.14 206.42 190.3 207.33 189.24 205C195.25 187.59 202.29 161.73 212.74 147.25C213.99 145.51 217.63 140.63 219.24 141Z" fill="url(#paint6_linear_173_438)"/>
<path d="M228.74 44.5C229.08 46.18 225.37 45.62 224.49 46C224.36 46.06 224.05 47.55 222.49 48C217.85 49.33 214.88 48.42 214.49 48.5C213.53 48.69 211.63 52.24 210.24 49.5C216.4 47.32 222.26 45.5 228.74 44.5Z" fill="#037FA5"/>
<path d="M196.74 123C191.29 132.95 185.01 143.25 180.99 153.5C182.97 150.66 184.91 147.54 186.74 144.5C187.45 145.03 188.02 147.39 188.99 147.5C191 147.72 193.84 142.29 195.49 142.5C195.84 142.55 196.61 145.12 198.99 144C200.7 143.19 207.84 130.44 211.24 130C197.48 146.51 185.79 164.53 175.74 183.5C164.93 177.17 149.96 156.3 145.24 145.25C141.74 137.04 139.74 124.65 138.74 122.25C138.62 121.97 137.67 121.11 137.24 121C138.12 118.53 138.81 115.57 139.74 113.25C140.84 110.51 143.7 108.22 142.74 106C160.3 81.69 181.26 59.77 210.24 49.5C211.63 52.24 213.53 48.69 214.49 48.5C214.88 48.42 217.85 49.33 222.49 48C224.05 47.55 224.36 46.06 224.49 46C225.37 45.62 229.08 46.18 228.74 44.5C240.98 42.6 253.38 42.75 265.74 43.25C233.67 53.95 212.33 94.54 196.74 123Z" fill="#04A5B8"/>
<path d="M190.74 137C189.25 139.31 188.14 142.18 186.74 144.5C184.91 147.54 182.97 150.66 180.99 153.5C185.01 143.25 191.29 132.95 196.74 123C197.1 124.19 197.3 125.24 195.74 125.75C198.19 127.36 190.75 133.54 190.74 137Z" fill="#EEFCF7"/>
<path d="M217.24 86.0001C205.77 103.02 196.7 121.11 186.74 139C175.16 135.81 162.34 113.2 168.24 102.75C173.13 94.1001 206.76 82.6101 217.24 86.0001Z" fill="#22D0C3"/>
<path d="M217.24 86C206.76 82.61 173.13 94.1 168.24 102.75C162.34 113.2 175.16 135.81 186.74 139C181.82 147.84 181.92 154.91 171.74 143.75C164.46 135.78 157.7 116.4 159.24 105.75C161.82 87.84 195.99 80.39 210.49 76.5L225.24 75.25C222.36 78.64 219.72 82.32 217.24 86Z" fill="#0DC3C2"/>
<path d="M175.74 183.5C175.7 183.57 175.8 183.94 175.24 185C171.19 186.57 167.12 178.21 161.24 174.75C158.56 168.56 153.13 163.84 149.74 158.25C141.01 143.87 141.2 138.54 136.74 123.5C137.09 122.47 137.15 121.25 137.24 121C137.67 121.11 138.62 121.97 138.74 122.25C139.74 124.65 141.74 137.04 145.24 145.25C149.96 156.3 164.93 177.17 175.74 183.5Z" fill="#037FA5"/>
<path d="M175.24 185C173.32 188.67 171.04 192.29 169.24 196C162.05 189.42 156.53 175.25 148.24 171.5C147.48 169.72 146.15 168.03 145.74 166C143.81 162.31 142.52 158.24 140.74 154.5C137.03 146.71 137.81 142.22 128.49 144.5C128.02 144.29 128.31 143.44 128.24 143C126.74 133.74 132.86 134.69 134.24 132.75C134.83 131.93 136.18 125.17 136.74 123.5C141.2 138.54 141.01 143.87 149.74 158.25C153.13 163.84 158.56 168.56 161.24 174.75C167.12 178.21 171.19 186.57 175.24 185Z" fill="#04729E"/>
<path d="M169.24 196C167.28 200.02 165.47 204.11 163.24 208C162.63 208.05 162.79 207.59 162.74 207.5C161.11 204.76 157.15 193.65 155.24 189C152.87 183.21 150.69 177.23 148.24 171.5C156.53 175.25 162.05 189.42 169.24 196Z" fill="#04729E"/>
<path d="M74.24 327C51.32 310.93 32.75 291.63 19.24 266.5C21.59 248.3 26.51 229.39 37.74 214.5C41.61 209.37 47.98 204.47 51.74 200C54.84 196.31 52.03 198.72 53.24 195.25C62.05 169.91 72.08 162.15 72.74 160.25C74.47 155.3 71.66 145.9 74.24 144.5C73.09 205.34 74.44 266.16 74.24 327Z" fill="url(#paint7_linear_173_438)"/>
<path d="M128.74 48.5C126.2 49.78 118.61 55.05 116.24 57C109.84 58.51 103.79 61.76 97.74 64.5C87.74 69.04 82.98 71.47 73.74 77.5C59.47 86.81 44.3 97.74 42.24 116.25C41.88 119.49 41.89 131.54 42.74 134.5C42.55 135.48 42.32 136.5 42.24 137.5C38.89 163.07 37.01 188.69 37.74 214.5C26.51 229.39 21.59 248.3 19.24 266.5C5.16001 240.31 -1.37999 216.8 0.240007 186.75C3.81001 120.35 64.06 58.87 128.74 48.5Z" fill="#C91B44"/>
<path d="M75.24 314C75.2 314.66 75.28 315.34 75.24 316C75 319.83 75.31 322.9 74.74 327H74.24C74.44 266.16 73.09 205.34 74.24 144.5C74.33 139.81 74.75 135.18 74.74 130.5C74.8 130.46 74.96 129.59 75.74 129.5C74.15 185.7 78.07 260.36 75.24 314Z" fill="#F5F0DE"/>
<path d="M74.74 130.5C74.75 135.18 74.33 139.81 74.24 144.5C71.66 145.9 74.47 155.3 72.74 160.25C72.08 162.15 62.05 169.91 53.24 195.25C52.03 198.72 54.84 196.31 51.74 200C46.97 187.46 45.65 165.91 52.74 153.75C54.61 150.54 60.39 144.07 63.24 141C66.54 137.44 70.78 133.33 74.74 130.5Z" fill="#FC9130"/>
<path d="M63.24 141C60.39 144.07 54.61 150.54 52.74 153.75C45.65 165.91 46.97 187.46 51.74 200C47.98 204.47 41.61 209.37 37.74 214.5C37.01 188.69 38.89 163.07 42.24 137.5C53.85 141.3 64.55 134.19 63.24 141Z" fill="#EF5A49"/>
<path d="M116.24 57C104.28 66.82 96.17 80.12 87.24 92.5C88.45 87.62 70.05 105.06 69.24 106.25C68.93 106.71 69.77 107.2 69.74 107.25C66.7 112.15 63.91 113.65 69.99 118.5C73.88 121.6 76.53 119.92 77.24 123.5C76.89 125.51 75.8 127.41 75.74 129.5C74.96 129.59 74.8 130.46 74.74 130.5C70.78 133.33 66.54 137.44 63.24 141C64.55 134.19 53.85 141.3 42.24 137.5C42.32 136.5 42.55 135.48 42.74 134.5C46.26 116.61 59.77 97.08 73.74 85.5C78.33 81.7 83.4 78.58 88.49 75.5C89.45 71.1 94.98 68.07 97.74 64.5C103.79 61.76 109.84 58.51 116.24 57Z" fill="#F4623A"/>
<path d="M73.74 77.5C74.77 80.35 70.12 80.13 73.74 85.5C59.77 97.08 46.26 116.61 42.74 134.5C41.89 131.54 41.88 119.49 42.24 116.25C44.3 97.74 59.47 86.81 73.74 77.5Z" fill="#E43F44"/>
<path d="M97.74 64.5C94.98 68.07 89.45 71.1 88.49 75.5C83.4 78.58 78.33 81.7 73.74 85.5C70.12 80.13 74.77 80.35 73.74 77.5C82.98 71.47 87.74 69.04 97.74 64.5Z" fill="#EF5A49"/>
<path d="M87.24 92.5001C83.57 102.44 79.22 112.02 77.24 122.5C77.18 122.81 77.3 123.18 77.24 123.5C76.53 119.92 73.88 121.6 69.99 118.5C63.91 113.65 66.7 112.15 69.74 107.25C69.77 107.2 68.93 106.71 69.24 106.25C70.05 105.06 88.45 87.6201 87.24 92.5001Z" fill="#F4623A"/>
<path d="M227.74 274L228.24 276C225.57 286.42 220.74 295.04 214.24 303.5C212.7 301.03 211.59 300.72 208.74 301C214.44 289.77 216.9 276.33 217.74 275.25C219 273.63 224.03 275.18 227.74 274Z" fill="#932169"/>
<path d="M178.24 333L180.24 334.5C175.92 337.33 171.7 339.68 180.49 337.5C180.94 337.39 179.88 336.05 183.24 337C172.33 341.19 167.79 342.62 156.49 345.5C156.15 345.59 156.08 347.39 149.99 346.5C148.25 348.56 141.59 349.24 138.74 349C145.3 345.97 152.39 344.6 158.74 341C162.6 341.02 174.37 335.37 178.24 333Z" fill="#F4623A"/>
<path d="M257.24 260C254.96 237.56 258.59 157 256.74 144.25C256.57 143.09 255.38 140.21 254.74 139V138C256.35 141.16 257.37 142.85 257.74 146.75C256.08 173.68 259.83 240.23 257.24 260Z" fill="#35232D"/>
<path d="M214.24 303.5C210.71 308.1 207.29 311.44 203.24 315.5L200.74 313.5C202.63 311.19 207.35 303.73 208.74 301C211.59 300.72 212.7 301.03 214.24 303.5Z" fill="#BD2E71"/>
<path d="M203.24 315.5C198.31 320.45 193.78 324.71 188.24 329C188.19 327.45 188.67 326.23 187.24 326.5C188.73 325.3 199.79 314.66 200.74 313.5L203.24 315.5Z" fill="#D43B66"/>
<path d="M187.24 326.5C188.67 326.23 188.19 327.45 188.24 329C184.7 331.74 183.69 332.25 180.24 334.5L178.24 333C179.56 332.19 185.86 327.61 187.24 326.5Z" fill="#EF5A49"/>
<path d="M227.74 274C224.03 275.18 219 273.63 217.74 275.25C216.9 276.33 214.44 289.77 208.74 301C207.35 303.73 202.63 311.19 200.74 313.5C199.79 314.66 188.73 325.3 187.24 326.5C185.86 327.61 179.56 332.19 178.24 333C174.37 335.37 162.6 341.02 158.74 341C170.27 334.46 179.38 321.67 185.24 310C191.21 298.09 194.28 286.24 198.74 274C198.77 273.92 200.36 273.43 199.49 272.5L198.74 274C198 273.79 198.61 271.19 198.74 270.5C199.94 264.24 221.87 210.81 227.24 192C227.41 191.4 227.54 190.29 227.74 189.5V274Z" fill="url(#paint8_linear_173_438)"/>
<path d="M185.24 310C179.38 321.67 170.27 334.46 158.74 341C152.39 344.6 145.3 345.97 138.74 349C129.18 350.97 119.48 352.12 109.74 352.5C118.45 347.33 126.21 341.21 133.74 334.5C144.14 325.23 150.69 318.65 156.74 305.5C166.2 307.4 175.74 308.4 185.24 310Z" fill="url(#paint9_linear_173_438)"/>
<path d="M138.74 225C136.37 221.18 135.74 216.63 134.24 212.5C139.9 211.45 145.59 210.54 151.24 209.5C155.05 208.8 158.86 207.82 162.74 207.5C162.79 207.59 162.63 208.05 163.24 208L175.24 244L176.24 244.25C181.86 231.97 185.5 218.86 190.99 206.5L217.49 214.5C215.02 221.55 199.17 268.94 197.24 271.25C195.01 273.92 164.23 271.81 158.49 272.5L138.74 225Z" fill="url(#paint10_linear_173_438)"/>
<path d="M227.24 192C221.87 210.81 199.94 264.24 198.74 270.5C197.8 271.24 197.39 274.62 196.49 275C194.71 275.74 163.37 274.44 157.99 275C150.71 258.72 144.37 241.94 138.74 225L158.49 272.5C164.23 271.81 195.01 273.92 197.24 271.25C199.17 268.94 215.02 221.55 217.49 214.5L190.99 206.5C185.5 218.86 181.86 231.97 176.24 244.25L175.24 244C180.48 231.21 184.73 218.05 189.24 205C190.3 207.33 195.14 206.42 195.49 206.5C195.59 206.52 196.89 207.97 196.99 208C197.11 208.03 197.73 207.04 199.49 207.5C199.59 207.53 199.86 208.7 200.99 209C206.28 210.41 212.4 210.86 217.49 213.5C221.55 208.27 223.72 197.03 225.74 192.75C225.98 192.25 226.64 191.87 227.24 192Z" fill="#F4F6CF"/>
<path d="M246.74 127.5C248.84 128.71 253.44 135.45 254.74 138V139C253.88 137.37 247.96 131.16 245.99 130.5C244.83 130.11 222.54 129.37 221.49 130C219.16 131.41 220.34 153.4 220.74 157.5C220.7 157.37 219.5 155.84 219.24 155.25C219.33 150.5 219.12 145.74 219.24 141C219.71 122.92 217.65 126.91 245.49 126.5C245.84 126.96 246.24 127.21 246.74 127.5Z" fill="#FAFDFD"/>
<path d="M254.74 139C255.38 140.21 256.57 143.09 256.74 144.25C258.59 157 254.96 237.56 257.24 260C257.22 260.16 257.26 260.34 257.24 260.5C256.89 260.5 256.46 260.34 256.24 260.75C252.61 267.4 257.33 275.38 229.24 272.75C228.4 243.06 230.37 213.16 229.24 183.5C229.11 180.09 229.33 176.66 229.24 173.25C226.66 168.51 222.42 162.4 220.74 157.5C220.34 153.4 219.16 131.41 221.49 130C222.54 129.37 244.83 130.11 245.99 130.5C247.96 131.16 253.88 137.37 254.74 139Z" fill="url(#paint11_linear_173_438)"/>
<path d="M257.24 260.5C254.41 279.4 243.83 275.83 228.24 276L227.74 274V189.5C227.95 188.68 228.65 189.17 228.74 188.75C228.8 188.49 228.07 184.15 229.24 183.5C230.37 213.16 228.4 243.06 229.24 272.75C257.33 275.38 252.61 267.4 256.24 260.75C256.46 260.34 256.89 260.5 257.24 260.5Z" fill="#F5E0C7"/>
<path d="M127.74 130.5C117.81 132.38 101.39 124.92 98.74 138.5C98.44 136.2 99.15 135.4 99.24 135C99.38 134.41 99.68 132.61 99.74 132.5C99.89 132.2 103.93 127.64 104.24 127.5C107.88 125.84 123.73 128.09 129.24 126.5C128.82 127.75 128.38 129.39 127.74 130.5Z" fill="#FAFDFD"/>
<path d="M127.74 130.5C127.59 134.65 127.94 138.85 127.74 143C127.31 152.05 127.14 160.95 127.24 170C127.32 177.67 127.18 185.33 127.24 193C127.1 193.91 128.09 194.76 128.24 195.5C128.19 214.02 128.43 232.48 127.74 251C127.4 251 126.83 250.88 126.74 251.25C126.04 254.18 126.83 271.71 125.49 272.5C116.11 271.48 99.63 275.26 98.24 269C97.88 263.97 98.3 257.76 98.24 252.5C97.79 214.5 98.67 176.5 98.74 138.5C101.39 124.92 117.81 132.38 127.74 130.5Z" fill="url(#paint12_linear_173_438)"/>
<path d="M127.74 251C127.41 259.78 127.2 266.67 126.24 275.5C120.21 274.18 100.42 278.69 98.24 272C97.6 270.04 98.25 269.15 98.24 269C99.63 275.26 116.11 271.48 125.49 272.5C126.83 271.71 126.04 254.18 126.74 251.25C126.83 250.88 127.4 251 127.74 251Z" fill="#F5F0DE"/>
<path d="M98.24 252.5C98.3 257.76 97.88 263.97 98.24 269C98.25 269.15 97.6 270.04 98.24 272H97.74C95.15 271.32 89.89 254.22 90.24 253.25C90.76 251.8 96.87 252.79 98.24 252.5Z" fill="#04A5B8"/>
<path d="M140.74 154.5C136.44 154.8 132.48 155.54 128.49 153.5C127.99 153.92 128.25 162.51 128.24 164C128.22 167.43 128.67 171.16 127.74 174.5C127.43 172.69 128.31 170.2 127.24 170C127.14 160.95 127.31 152.05 127.74 143H128.24C128.31 143.44 128.02 144.29 128.49 144.5C137.81 142.22 137.03 146.71 140.74 154.5Z" fill="#04A5B8"/>
<path d="M151.24 209.5C145.59 210.54 139.9 211.45 134.24 212.5C132.22 206.93 129.46 201.33 128.24 195.5C128.09 194.76 127.1 193.91 127.24 193C129.65 188.21 140.66 202.95 150.24 207.75C150 209.72 142.56 207.75 151.24 209.5Z" fill="#B9E7D7"/>
<path d="M127.74 174.5C128.73 180.25 131.08 177.94 135.49 180C138.51 181.41 142.03 183.78 144.99 185C146.53 185.63 152.46 186.38 153.49 187C154.53 187.63 153.08 189.56 155.24 189C157.15 193.65 161.11 204.76 162.74 207.5C158.86 207.82 155.05 208.8 151.24 209.5C142.56 207.75 150 209.72 150.24 207.75C140.66 202.95 129.65 188.21 127.24 193C127.18 185.33 127.32 177.67 127.24 170C128.31 170.2 127.43 172.69 127.74 174.5Z" fill="#9ED6CE"/>
<path d="M145.74 166C146.15 168.03 147.48 169.72 148.24 171.5C150.69 177.23 152.87 183.21 155.24 189C153.08 189.56 154.53 187.63 153.49 187C152.46 186.38 146.53 185.63 144.99 185C142.03 183.78 138.51 181.41 135.49 180C131.08 177.94 128.73 180.25 127.74 174.5C128.67 171.16 128.22 167.43 128.24 164C133.96 165.05 140.04 166.51 145.74 166Z" fill="#0DC3C2"/>
<path d="M140.74 154.5C142.52 158.24 143.81 162.31 145.74 166C140.04 166.51 133.96 165.05 128.24 164C128.24 162.51 127.99 153.92 128.49 153.5C132.48 155.54 136.44 154.8 140.74 154.5Z" fill="#1AB4BD"/>
<path d="M198.74 274L199.49 272.5C200.36 273.43 198.77 273.92 198.74 274Z" fill="#441850"/>
<defs>
<linearGradient id="paint0_linear_173_438" x1="303.03" y1="36.15" x2="291.55" y2="150.08" gradientUnits="userSpaceOnUse">
<stop stop-color="#174375"/>
<stop offset="1" stop-color="#075F8F"/>
</linearGradient>
<linearGradient id="paint1_linear_173_438" x1="134.21" y1="308.22" x2="76.52" y2="349.62" gradientUnits="userSpaceOnUse">
<stop stop-color="#2D295E"/>
<stop offset="1" stop-color="#17416F"/>
</linearGradient>
<linearGradient id="paint2_linear_173_438" x1="288.13" y1="64.26" x2="167.86" y2="219.65" gradientUnits="userSpaceOnUse">
<stop stop-color="#009CB4"/>
<stop offset="1" stop-color="#242856"/>
</linearGradient>
<linearGradient id="paint3_linear_173_438" x1="237.97" y1="110.42" x2="221.29" y2="318.75" gradientUnits="userSpaceOnUse">
<stop stop-color="#242E61"/>
<stop offset="0.65" stop-color="#2F1842"/>
<stop offset="0.72" stop-color="#2F1842"/>
<stop offset="0.78" stop-color="#351844"/>
<stop offset="1" stop-color="#932266"/>
</linearGradient>
<linearGradient id="paint4_linear_173_438" x1="158.67" y1="225.93" x2="162.71" y2="304.33" gradientUnits="userSpaceOnUse">
<stop stop-color="#2D1843"/>
<stop offset="1" stop-color="#135081"/>
</linearGradient>
<linearGradient id="paint5_linear_173_438" x1="134.96" y1="308.41" x2="136.87" y2="324.29" gradientUnits="userSpaceOnUse">
<stop stop-color="#791A66"/>
<stop offset="1" stop-color="#A42872"/>
</linearGradient>
<linearGradient id="paint6_linear_173_438" x1="221.73" y1="158.29" x2="206.37" y2="204.82" gradientUnits="userSpaceOnUse">
<stop stop-color="#0292AF"/>
<stop offset="1" stop-color="#A4DFD0"/>
</linearGradient>
<linearGradient id="paint7_linear_173_438" x1="41.15" y1="210.23" x2="107.11" y2="261.43" gradientUnits="userSpaceOnUse">
<stop stop-color="#F7B731"/>
<stop offset="1" stop-color="#F6CC33"/>
</linearGradient>
<linearGradient id="paint8_linear_173_438" x1="232.81" y1="244.67" x2="166.84" y2="281.38" gradientUnits="userSpaceOnUse">
<stop stop-color="#2F1844"/>
<stop offset="1" stop-color="#9E246F"/>
</linearGradient>
<linearGradient id="paint9_linear_173_438" x1="151.2" y1="309.35" x2="144.85" y2="346.81" gradientUnits="userSpaceOnUse">
<stop stop-color="#59175A"/>
<stop offset="1" stop-color="#861F63"/>
</linearGradient>
<linearGradient id="paint10_linear_173_438" x1="175.63" y1="211.3" x2="181.61" y2="267.99" gradientUnits="userSpaceOnUse">
<stop stop-color="#F7CF2D"/>
<stop offset="1" stop-color="#E7972D"/>
</linearGradient>
<linearGradient id="paint11_linear_173_438" x1="224.74" y1="134.74" x2="256.82" y2="264.33" gradientUnits="userSpaceOnUse">
<stop offset="0.26" stop-color="#F5CD2B"/>
<stop offset="0.78" stop-color="#EE9732"/>
<stop offset="1" stop-color="#B1532B"/>
</linearGradient>
<linearGradient id="paint12_linear_173_438" x1="142.55" y1="145.47" x2="85.64" y2="256.76" gradientUnits="userSpaceOnUse">
<stop offset="0.26" stop-color="#F6D230"/>
<stop offset="0.76" stop-color="#F0A032"/>
<stop offset="1" stop-color="#BD662E"/>
</linearGradient>
</defs>
</svg>
